<mxfile host="app.diagrams.net" modified="2022-04-12T02:55:02.215Z" agent="5.0 (Macintosh; Intel Mac OS X 10_15_7) AppleWebKit/537.36 (KHTML, like Gecko) Chrome/100.0.4896.75 Safari/537.36" etag="_rp6Pbc3DO6hVR-gHLiL" version="17.4.1" type="github">
  <diagram id="AdGgq3s2-j83g7VhR_e-" name="Page-1">
    <mxGraphModel dx="946" dy="547" grid="1" gridSize="10" guides="1" tooltips="1" connect="1" arrows="1" fold="1" page="1" pageScale="1" pageWidth="827" pageHeight="1169" math="0" shadow="0">
      <root>
        <mxCell id="0" />
        <mxCell id="1" parent="0" />
        <mxCell id="5gR2YbL7ooP7vub9se2f-4" style="edgeStyle=orthogonalEdgeStyle;rounded=0;orthogonalLoop=1;jettySize=auto;html=1;exitX=0.5;exitY=1;exitDx=0;exitDy=0;entryX=0.5;entryY=0;entryDx=0;entryDy=0;" edge="1" parent="1" source="5gR2YbL7ooP7vub9se2f-1" target="5gR2YbL7ooP7vub9se2f-3">
          <mxGeometry relative="1" as="geometry" />
        </mxCell>
        <mxCell id="5gR2YbL7ooP7vub9se2f-1" value="开始" style="ellipse;whiteSpace=wrap;html=1;aspect=fixed;" vertex="1" parent="1">
          <mxGeometry x="120" y="40" width="80" height="80" as="geometry" />
        </mxCell>
        <mxCell id="5gR2YbL7ooP7vub9se2f-6" style="edgeStyle=orthogonalEdgeStyle;rounded=0;orthogonalLoop=1;jettySize=auto;html=1;exitX=0.5;exitY=1;exitDx=0;exitDy=0;entryX=0.5;entryY=0;entryDx=0;entryDy=0;" edge="1" parent="1" source="5gR2YbL7ooP7vub9se2f-3" target="5gR2YbL7ooP7vub9se2f-5">
          <mxGeometry relative="1" as="geometry" />
        </mxCell>
        <mxCell id="5gR2YbL7ooP7vub9se2f-3" value="新建JOB时添加（可选）" style="rounded=1;whiteSpace=wrap;html=1;" vertex="1" parent="1">
          <mxGeometry x="100" y="170" width="120" height="60" as="geometry" />
        </mxCell>
        <mxCell id="5gR2YbL7ooP7vub9se2f-5" value="任务清单配置时添加（可选）" style="rounded=1;whiteSpace=wrap;html=1;" vertex="1" parent="1">
          <mxGeometry x="100" y="270" width="120" height="60" as="geometry" />
        </mxCell>
      </root>
    </mxGraphModel>
  </diagram>
</mxfile>
